<?xml version="1.0" standalone="no"?>
<!DOCTYPE svg PUBLIC "-//W3C//DTD SVG 20010904//EN"
 "http://www.w3.org/TR/2001/REC-SVG-20010904/DTD/svg10.dtd">
<svg version="1.0" xmlns="http://www.w3.org/2000/svg"
 width="268.000000pt" height="268.000000pt" viewBox="0 0 268.000000 268.000000"
 preserveAspectRatio="xMidYMid meet">
<metadata>
Created by potrace 1.14, written by Peter Selinger 2001-2017
</metadata>
<g transform="translate(0.000000,268.000000) scale(0.100000,-0.100000)"
fill="#000000" stroke="none">
<path d="M520 2665 c-96 -44 -135 -145 -91 -240 13 -27 147 -168 402 -422 417
-414 402 -402 501 -390 24 4 45 6 47 6 3 1 178 173 389 384 255 254 390 395
403 422 33 70 17 158 -38 207 -28 25 -88 48 -125 48 -69 -1 -108 -32 -411
-338 l-298 -301 -297 301 c-163 165 -310 306 -325 314 -43 23 -117 27 -157 9z"/>
<path d="M2372 2268 c-38 -8 -69 -36 -310 -277 -288 -288 -301 -305 -286 -389
14 -81 90 -151 165 -152 79 0 85 4 358 274 283 280 303 307 296 388 -9 110
-108 180 -223 156z"/>
<path d="M97 2249 c-81 -43 -116 -150 -77 -235 11 -25 124 -145 318 -338 l300
-298 -304 -304 c-302 -302 -334 -341 -334 -403 0 -126 113 -212 234 -180 33 9
101 72 424 397 223 224 391 400 398 419 18 43 18 95 -1 141 -19 46 -742 774
-797 803 -47 24 -112 24 -161 -2z"/>
<path d="M1445 1436 c-16 -8 -38 -23 -47 -34 -20 -24 -52 -129 -83 -267 -3
-11 -50 -200 -105 -420 -113 -445 -114 -457 -57 -515 17 -18 42 -36 55 -41 59
-22 137 1 173 52 12 17 43 119 76 247 62 244 57 224 68 275 9 46 16 40 43 -38
29 -84 152 -420 170 -465 18 -45 57 -72 112 -78 48 -4 52 -3 88 35 31 32 49
72 110 243 71 199 91 253 116 314 12 27 17 11 75 -227 35 -141 71 -271 81
-289 36 -69 141 -99 207 -58 37 22 73 86 73 127 0 15 -50 226 -110 468 -61
242 -112 449 -115 460 -29 139 -63 198 -124 216 -58 17 -109 4 -151 -39 -30
-32 -50 -78 -139 -325 -58 -158 -105 -286 -106 -285 -1 2 -49 131 -105 288
-57 157 -113 297 -124 311 -42 54 -119 73 -181 45z"/>
<path d="M812 698 c-37 -8 -63 -30 -203 -170 -174 -173 -200 -212 -192 -282
13 -114 116 -185 225 -155 36 9 70 38 205 172 175 173 200 210 189 281 -18
114 -112 178 -224 154z"/>
</g>
</svg>
